REM DIRINDEX 1\2,1\3\5,1\3\6,1\4\7,1\4\8
REM DIRNAME folder01,folder02,folder03,folder04,folder05,folder06,folder07,folder08
TITLE ""
FILE "EG_E3_20.mp3" MP3
  TRACK 01 AUDIO
    TITLE "0:"
    INDEX 01 00:00:00
  TRACK 02 AUDIO
    TITLE "5:cjc139_2173"
    INDEX 01 00:00:17
  TRACK 03 AUDIO
    TITLE "6:cjc139_2174"
    INDEX 01 00:01:71
  TRACK 04 AUDIO
    TITLE "5:cjc139_2175"
    INDEX 01 00:04:54
  TRACK 05 AUDIO
    TITLE "6:cjc139_2176"
    INDEX 01 00:06:73
  TRACK 06 AUDIO
    TITLE "5:cjc139_2177"
    INDEX 01 00:09:59
  TRACK 07 AUDIO
    TITLE "6:cjc139_2178"
    INDEX 01 00:12:03
  TRACK 08 AUDIO
    TITLE "5:cjc139_2179"
    INDEX 01 00:14:60
  TRACK 09 AUDIO
    TITLE "6:cjc139_2180"
    INDEX 01 00:18:11
  TRACK 10 AUDIO
    TITLE "5:cjc139_2181"
    INDEX 01 00:20:73
  TRACK 11 AUDIO
    TITLE "6:cjc139_2182"
    INDEX 01 00:23:38
  TRACK 12 AUDIO
    TITLE "5:cjc139_2183"
    INDEX 01 00:26:20
  TRACK 13 AUDIO
    TITLE "6:cjc139_2184"
    INDEX 01 00:28:39
  TRACK 14 AUDIO
    TITLE "5:cjc139_2185"
    INDEX 01 00:31:22
  TRACK 15 AUDIO
    TITLE "6:cjc139_2186"
    INDEX 01 00:34:00
  TRACK 16 AUDIO
    TITLE "5:cjc139_2187"
    INDEX 01 00:36:60
  TRACK 17 AUDIO
    TITLE "6:cjc139_2188"
    INDEX 01 00:39:17
  TRACK 18 AUDIO
    TITLE "5:cjc139_2189"
    INDEX 01 00:42:00
  TRACK 19 AUDIO
    TITLE "6:cjc139_2190"
    INDEX 01 00:44:50
  TRACK 20 AUDIO
    TITLE "5:cjc139_2191"
    INDEX 01 00:47:38
  TRACK 21 AUDIO
    TITLE "6:cjc139_2192"
    INDEX 01 00:49:25
  TRACK 22 AUDIO
    TITLE "5:cjc139_2193"
    INDEX 01 00:52:12
  TRACK 23 AUDIO
    TITLE "6:cjc139_2194"
    INDEX 01 00:55:55
  TRACK 24 AUDIO
    TITLE "5:cjc139_2195"
    INDEX 01 00:58:40
  TRACK 25 AUDIO
    TITLE "6:cjc139_2196"
    INDEX 01 01:01:70
  TRACK 26 AUDIO
    TITLE "5:cjc139_2197"
    INDEX 01 01:04:56
  TRACK 27 AUDIO
    TITLE "6:cjc139_2198"
    INDEX 01 01:07:37
  TRACK 28 AUDIO
    TITLE "5:cjc139_2199"
    INDEX 01 01:10:22
  TRACK 29 AUDIO
    TITLE "6:cjc139_2200"
    INDEX 01 01:11:72
  TRACK 30 AUDIO
    TITLE "5:cjc139_2201"
    INDEX 01 01:14:57
  TRACK 31 AUDIO
    TITLE "6:cjc139_2202"
    INDEX 01 01:16:61
  TRACK 32 AUDIO
    TITLE "5:cjc139_2203"
    INDEX 01 01:19:48
  TRACK 33 AUDIO
    TITLE "6:cjc139_2204"
    INDEX 01 01:22:46
  TRACK 34 AUDIO
    TITLE "5:cjc139_2205"
    INDEX 01 01:25:29
  TRACK 35 AUDIO
    TITLE "6:cjc139_2206"
    INDEX 01 01:26:40
  TRACK 36 AUDIO
    TITLE "5:cjc139_2207"
    INDEX 01 01:29:25
  TRACK 37 AUDIO
    TITLE "6:cjc139_2208"
    INDEX 01 01:31:28
  TRACK 38 AUDIO
    TITLE "5:cjc139_2209"
    INDEX 01 01:34:14
  TRACK 39 AUDIO
    TITLE "6:cjc139_2210"
    INDEX 01 01:36:52
  TRACK 40 AUDIO
    TITLE "5:cjc139_2211"
    INDEX 01 01:39:37
  TRACK 41 AUDIO
    TITLE "6:cjc139_2212"
    INDEX 01 01:42:12
  TRACK 42 AUDIO
    TITLE "5:cjc139_2213"
    INDEX 01 01:44:70
  TRACK 43 AUDIO
    TITLE "6:cjc139_2214"
    INDEX 01 01:48:07
  TRACK 44 AUDIO
    TITLE "5:cjc139_2215"
    INDEX 01 01:50:68
  TRACK 45 AUDIO
    TITLE "6:cjc139_2216"
    INDEX 01 01:53:49
  TRACK 46 AUDIO
    TITLE "5:cjc139_2217"
    INDEX 01 01:56:37
  TRACK 47 AUDIO
    TITLE "6:cjc139_2218"
    INDEX 01 01:59:32
  TRACK 48 AUDIO
    TITLE "5:cjc139_2219"
    INDEX 01 02:02:15
  TRACK 49 AUDIO
    TITLE "6:cjc139_2220"
    INDEX 01 02:04:33
  TRACK 50 AUDIO
    TITLE "5:cjc139_2221"
    INDEX 01 02:07:20
  TRACK 51 AUDIO
    TITLE "6:cjc139_2222"
    INDEX 01 02:09:52
  TRACK 52 AUDIO
    TITLE "5:cjc139_2223"
    INDEX 01 02:12:38
  TRACK 53 AUDIO
    TITLE "6:cjc139_2224"
    INDEX 01 02:15:68
  TRACK 54 AUDIO
    TITLE "5:cjc139_2225"
    INDEX 01 02:18:53
  TRACK 55 AUDIO
    TITLE "6:cjc139_2226"
    INDEX 01 02:23:66
  TRACK 56 AUDIO
    TITLE "5:cjc139_2227"
    INDEX 01 02:26:50
  TRACK 57 AUDIO
    TITLE "6:cjc139_2228"
    INDEX 01 02:30:29
  TRACK 58 AUDIO
    TITLE "5:cjc139_2229"
    INDEX 01 02:33:11
  TRACK 59 AUDIO
    TITLE "6:cjc139_2230"
    INDEX 01 02:37:31
  TRACK 60 AUDIO
    TITLE "5:cjc139_2231"
    INDEX 01 02:40:17
  TRACK 61 AUDIO
    TITLE "6:cjc139_2232"
    INDEX 01 02:42:53
  TRACK 62 AUDIO
    TITLE "5:cjc139_2233"
    INDEX 01 02:45:38
  TRACK 63 AUDIO
    TITLE "6:cjc139_2234"
    INDEX 01 02:49:00
  TRACK 64 AUDIO
    TITLE "5:cjc139_2235"
    INDEX 01 02:51:60
  TRACK 65 AUDIO
    TITLE "6:cjc139_2236"
    INDEX 01 02:55:46
  TRACK 66 AUDIO
    TITLE "5:cjc139_2237"
    INDEX 01 02:58:29
  TRACK 67 AUDIO
    TITLE "6:cjc139_2238"
    INDEX 01 03:01:31
  TRACK 68 AUDIO
    TITLE "5:cjc139_2239"
    INDEX 01 03:04:16
  TRACK 69 AUDIO
    TITLE "6:cjc139_2240"
    INDEX 01 03:06:22
  TRACK 70 AUDIO
    TITLE "5:cjc139_2241"
    INDEX 01 03:09:05
  TRACK 71 AUDIO
    TITLE "6:cjc139_2242"
    INDEX 01 03:13:38
  TRACK 72 AUDIO
    TITLE "5:cjc139_2243"
    INDEX 01 03:16:21
  TRACK 73 AUDIO
    TITLE "6:cjc139_2244"
    INDEX 01 03:19:64
  TRACK 74 AUDIO
    TITLE "5:cjc139_2245"
    INDEX 01 03:22:47
  TRACK 75 AUDIO
    TITLE "6:cjc139_2246"
    INDEX 01 03:26:62
  TRACK 76 AUDIO
    TITLE "5:cjc139_2247"
    INDEX 01 03:29:47
  TRACK 77 AUDIO
    TITLE "6:cjc139_2248"
    INDEX 01 03:32:06
  TRACK 78 AUDIO
    TITLE "5:cjc139_2249"
    INDEX 01 03:34:62
  TRACK 79 AUDIO
    TITLE "6:cjc139_2250"
    INDEX 01 03:39:04
  TRACK 80 AUDIO
    TITLE "5:cjc139_2251"
    INDEX 01 03:41:62
  TRACK 81 AUDIO
    TITLE "6:cjc139_2252"
    INDEX 01 03:44:66
  TRACK 82 AUDIO
    TITLE "5:cjc139_2253"
    INDEX 01 03:47:53
  TRACK 83 AUDIO
    TITLE "6:cjc139_2254"
    INDEX 01 03:50:24
  TRACK 84 AUDIO
    TITLE "5:cjc139_2255"
    INDEX 01 03:53:08
  TRACK 85 AUDIO
    TITLE "6:cjc139_2256"
    INDEX 01 03:55:27
  TRACK 86 AUDIO
    TITLE "5:cjc139_2257"
    INDEX 01 03:58:09
  TRACK 87 AUDIO
    TITLE "6:cjc139_2258"
    INDEX 01 04:00:59
  TRACK 88 AUDIO
    TITLE "5:cjc139_2259"
    INDEX 01 04:03:44
  TRACK 89 AUDIO
    TITLE "6:cjc139_2260"
    INDEX 01 04:06:27
  TRACK 90 AUDIO
    TITLE "5:cjc139_2261"
    INDEX 01 04:09:13
  TRACK 91 AUDIO
    TITLE "6:cjc139_2262"
    INDEX 01 04:12:13
  TRACK 92 AUDIO
    TITLE "5:cjc139_2263"
    INDEX 01 04:14:73
  TRACK 93 AUDIO
    TITLE "6:cjc139_2264"
    INDEX 01 04:17:62
  TRACK 94 AUDIO
    TITLE "5:cjc139_2265"
    INDEX 01 04:20:44
  TRACK 95 AUDIO
    TITLE "6:cjc139_2266"
    INDEX 01 04:23:11
  TRACK 96 AUDIO
    TITLE "5:cjc139_2267"
    INDEX 01 04:25:71
  TRACK 97 AUDIO
    TITLE "6:cjc139_2268"
    INDEX 01 04:29:14
  TRACK 98 AUDIO
    TITLE "5:cjc139_2269"
    INDEX 01 04:31:72
  TRACK 99 AUDIO
    TITLE "6:cjc139_2270"
    INDEX 01 04:33:59
  TRACK 100 AUDIO
    TITLE "5:cjc139_2271"
    INDEX 01 04:36:43
  TRACK 101 AUDIO
    TITLE "6:cjc139_2272"
    INDEX 01 04:40:12
  TRACK 102 AUDIO
    TITLE "5:cjc139_2273"
    INDEX 01 04:42:71
  TRACK 103 AUDIO
    TITLE "6:cjc139_2274"
    INDEX 01 04:45:62
  TRACK 104 AUDIO
    TITLE "5:cjc139_2275"
    INDEX 01 04:48:50
  TRACK 105 AUDIO
    TITLE "6:cjc139_2276"
    INDEX 01 04:51:25
  TRACK 106 AUDIO
    TITLE "5:cjc139_2277"
    INDEX 01 04:54:10
  TRACK 107 AUDIO
    TITLE "6:cjc139_2278"
    INDEX 01 04:56:48
  TRACK 108 AUDIO
    TITLE "5:cjc139_2279"
    INDEX 01 04:59:31
  TRACK 109 AUDIO
    TITLE "6:cjc139_2280"
    INDEX 01 05:01:22
  TRACK 110 AUDIO
    TITLE "5:cjc139_2281"
    INDEX 01 05:04:08
  TRACK 111 AUDIO
    TITLE "6:cjc139_2282"
    INDEX 01 05:07:26
  TRACK 112 AUDIO
    TITLE "5:cjc139_2283"
    INDEX 01 05:10:07
  TRACK 113 AUDIO
    TITLE "6:cjc139_2284"
    INDEX 01 05:13:01
  TRACK 114 AUDIO
    TITLE "5:cjc139_2285"
    INDEX 01 05:15:59
  TRACK 115 AUDIO
    TITLE "6:cjc139_2286"
    INDEX 01 05:19:31
  TRACK 116 AUDIO
    TITLE "5:cjc139_2287"
    INDEX 01 05:22:14
  TRACK 117 AUDIO
    TITLE "6:cjc139_2288"
    INDEX 01 05:23:68
  TRACK 118 AUDIO
    TITLE "5:cjc139_2289"
    INDEX 01 05:26:53
  TRACK 119 AUDIO
    TITLE "6:cjc139_2290"
    INDEX 01 05:29:28
  TRACK 120 AUDIO
    TITLE "0:"
    INDEX 01 05:32:20
